<svg width="205" height="200" viewBox="0 0 205 200" fill="none" xmlns="http://www.w3.org/2000/svg">
<path d="M81.8833 0H122.825C128.254 0 133.461 2.15674 137.3 5.99577C141.139 9.83479 143.296 15.0416 143.296 20.4708V40.9417H184.237C189.667 40.9417 194.873 43.0984 198.713 46.9374C202.552 50.7764 204.708 55.9833 204.708 61.4125V118.014C198.791 112.594 191.824 108.449 184.237 105.834V61.4125H20.4708V174.002H103.173C104.401 181.372 106.96 188.229 110.542 194.473H20.4708C15.0416 194.473 9.83479 192.316 5.99577 188.477C2.15674 184.638 0 179.431 0 174.002V61.4125C0 55.9833 2.15674 50.7764 5.99577 46.9374C9.83479 43.0984 15.0416 40.9417 20.4708 40.9417H61.4125V20.4708C61.4125 15.0416 63.5692 9.83479 67.4083 5.99577C71.2473 2.15674 76.4541 0 81.8833 0ZM122.825 40.9417V20.4708H81.8833V40.9417H122.825ZM127.533 142.068L142.068 127.533L163.767 149.335L185.466 127.533L200 142.068L178.199 163.767L200 185.466L185.466 200L163.767 178.199L142.068 200L127.533 185.466L149.335 163.767L127.533 142.068Z" fill="black"/>
</svg>
