<svg id="Слой_1" data-name="Слой 1" xmlns="http://www.w3.org/2000/svg" xmlns:xlink="http://www.w3.org/1999/xlink" viewBox="0 0 20.75 23.98"><defs><style>.cls-1{fill:url(#Безымянный_градиент_74);}</style><linearGradient id="Безымянный_градиент_74" x1="0.69" y1="21.67" x2="20.06" y2="2.31" gradientUnits="userSpaceOnUse"><stop offset="0" stop-color="lime"/><stop offset="1" stop-color="#00cbff"/></linearGradient></defs><title>scolor</title><polygon class="cls-1" points="15.57 11.99 15.57 11.99 12.97 10.49 10.37 8.99 7.78 10.49 5.2 11.98 5.2 9 5.2 6 7.79 4.5 10.38 3.01 12.96 4.5 15.55 6 18.15 4.5 20.75 3 18.15 1.5 15.55 0 12.96 1.5 10.38 2.99 7.79 1.5 5.2 0 2.6 1.5 0 3 0 6 0 9 2.6 10.5 5.18 11.99 5.18 11.99 7.78 13.49 10.37 14.99 12.97 13.49 15.55 12 15.55 14.98 15.55 17.98 12.96 19.48 10.38 20.97 7.79 19.48 5.2 17.98 2.6 19.48 0 20.98 2.6 22.48 5.2 23.98 7.79 22.48 10.38 20.99 12.96 22.48 15.55 23.98 18.15 22.48 20.75 20.98 20.75 17.98 20.75 14.98 18.15 13.48 15.57 11.99"/></svg>