<svg width="193" height="200" viewBox="0 0 193 200" fill="none" xmlns="http://www.w3.org/2000/svg">
<path d="M118.238 16.2173C118.541 15.8341 118.917 15.5146 119.344 15.2772C119.771 15.0399 120.24 14.8893 120.726 14.8343C121.211 14.7792 121.703 14.8207 122.172 14.9563C122.641 15.092 123.079 15.3191 123.46 15.6247L131.46 22.0392L102.209 59.2668H121.053L143.037 31.2979L161.584 46.1564C161.973 46.4676 162.294 46.8539 162.53 47.2923C162.766 47.7307 162.911 48.2122 162.957 48.7079C163.003 49.2037 162.948 49.7035 162.796 50.1776C162.644 50.6517 162.398 51.0903 162.073 51.4672L155.347 59.2668H174.709C177.259 55.4134 178.277 50.7457 177.561 46.1805C176.846 41.6154 174.449 37.4827 170.843 34.5941L132.719 4.06237C130.814 2.53755 128.627 1.40409 126.283 0.727135C123.94 0.050179 121.485 -0.156933 119.061 0.117698C116.637 0.392329 114.291 1.14329 112.158 2.32743C110.024 3.51157 108.146 5.10555 106.631 7.01777L65.2484 59.2668H84.1436L118.238 16.2173ZM133.326 125.93C131.362 125.93 129.478 126.71 128.089 128.099C126.7 129.488 125.919 131.372 125.919 133.337C125.919 135.301 126.7 137.185 128.089 138.574C129.478 139.964 131.362 140.744 133.326 140.744H155.547C157.512 140.744 159.396 139.964 160.785 138.574C162.174 137.185 162.954 135.301 162.954 133.337C162.954 131.372 162.174 129.488 160.785 128.099C159.396 126.71 157.512 125.93 155.547 125.93H133.326ZM22.221 37.0458C16.3276 37.0458 10.6756 39.3869 6.50839 43.5542C2.34114 47.7214 0 53.3734 0 59.2668V166.668C0 175.509 3.51171 183.987 9.76258 190.237C16.0135 196.488 24.4915 200 33.3315 200H159.251C168.091 200 176.569 196.488 182.82 190.237C189.071 183.987 192.582 175.509 192.582 166.668V100.005C192.582 91.1653 189.071 82.6873 182.82 76.4364C176.569 70.1855 168.091 66.6738 159.251 66.6738H22.221C20.2566 66.6738 18.3726 65.8934 16.9835 64.5044C15.5944 63.1153 14.814 61.2313 14.814 59.2668C14.814 57.3024 15.5944 55.4184 16.9835 54.0293C18.3726 52.6402 20.2566 51.8598 22.221 51.8598H56.1451L67.9667 37.0458H22.221ZM14.814 166.668V80.2287C17.1324 81.0434 19.6286 81.4878 22.221 81.4878H159.251C164.162 81.4878 168.872 83.4388 172.345 86.9115C175.817 90.3842 177.768 95.0942 177.768 100.005V166.668C177.768 171.58 175.817 176.29 172.345 179.762C168.872 183.235 164.162 185.186 159.251 185.186H33.3315C28.4204 185.186 23.7104 183.235 20.2377 179.762C16.765 176.29 14.814 171.58 14.814 166.668Z" fill="black"/>
</svg>
