<svg id="Слой_1" data-name="Слой 1" xmlns="http://www.w3.org/2000/svg" xmlns:xlink="http://www.w3.org/1999/xlink" viewBox="0 0 50 50"><defs><style>.cls-1{fill:#fff;}.cls-2{fill:url(#Безымянный_градиент_74);}</style><linearGradient id="Безымянный_градиент_74" x1="12.14" y1="37.86" x2="37.86" y2="12.14" gradientUnits="userSpaceOnUse"><stop offset="0" stop-color="#8fff3c"/><stop offset="1" stop-color="#72c9fc"/></linearGradient></defs><title>Безымянный-1</title><circle class="cls-1" cx="25" cy="25" r="25"/><polygon class="cls-2" points="31.9 25 31.9 25 28.45 23.01 25 21.02 21.55 23.01 18.12 24.98 18.12 21.03 18.12 17.05 21.57 15.05 25 13.07 28.43 15.05 31.88 17.05 35.33 15.05 38.78 13.06 35.33 11.07 31.88 9.08 28.43 11.07 25 13.05 21.57 11.07 18.12 9.08 14.67 11.07 11.22 13.06 11.22 17.05 11.22 21.03 14.67 23.02 18.1 25 18.1 25 21.55 26.99 25 28.98 28.45 26.99 31.88 25.01 31.88 28.97 31.88 32.95 28.43 34.95 25 36.92 21.57 34.95 18.12 32.95 14.67 34.95 11.22 36.94 14.67 38.93 18.12 40.92 21.57 38.93 25 36.95 28.43 38.93 31.88 40.92 35.33 38.93 38.78 36.94 38.78 32.95 38.78 28.97 35.33 26.98 31.9 25"/></svg>