<svg width="16" height="16" viewBox="0 0 16 16" fill="none" xmlns="http://www.w3.org/2000/svg">
<path d="M14.9773 0.254972C15.44 0.51411 15.7808 0.946412 15.9248 1.45681C16.0689 1.96721 16.0043 2.51391 15.7453 2.9767L9.16809 14.7219C9.00152 15.0195 8.77048 15.276 8.49191 15.4726C8.21334 15.6693 7.89429 15.8012 7.55815 15.8585C7.22201 15.9159 6.87729 15.8973 6.54925 15.8042C6.22122 15.711 5.91819 15.5457 5.66236 15.3202L0.67776 10.9293C0.279782 10.5786 0.0374158 10.0842 0.0039806 9.5548C-0.0294546 9.02541 0.148779 8.50442 0.499473 8.10644C0.850167 7.70846 1.34459 7.4661 1.87398 7.43266C2.40338 7.39923 2.92437 7.57746 3.32235 7.92815L6.71436 10.9167L12.255 1.02298C12.3833 0.793791 12.5555 0.592125 12.7617 0.429494C12.968 0.266862 13.2043 0.14645 13.457 0.0751336C13.7098 0.00381704 13.9742 -0.0170075 14.235 0.0138493C14.4959 0.044706 14.7481 0.12664 14.9773 0.254972Z" fill="#0F7F12"/>
</svg>
