<svg width="16" height="19" viewBox="0 0 16 19" fill="none" xmlns="http://www.w3.org/2000/svg">
<path d="M15.9866 15.6455C15.9867 16.1019 15.8868 16.5527 15.6941 16.9664C15.5013 17.3801 15.2204 17.7466 14.8709 18.0401C14.5215 18.3337 14.112 18.5471 13.6713 18.6656C13.2305 18.784 12.7692 18.8045 12.3197 18.7257C11.8702 18.6469 11.4433 18.4706 11.0692 18.2092C10.6951 17.9479 10.3827 17.6078 10.154 17.2129C9.92526 16.8179 9.78578 16.3777 9.74531 15.9232C9.70485 15.4686 9.76438 15.0106 9.91974 14.5815L5.31638 11.6241C4.87673 12.0553 4.31951 12.3472 3.71463 12.4629C3.10976 12.5787 2.48416 12.5133 1.91632 12.2749C1.34849 12.0365 0.863701 11.6357 0.522784 11.1228C0.181867 10.6099 0 10.0077 0 9.39188C0 8.77603 0.181867 8.17388 0.522784 7.66099C0.863701 7.1481 1.34849 6.74731 1.91632 6.50889C2.48416 6.27047 3.10976 6.20505 3.71463 6.32083C4.31951 6.43661 4.87673 6.72843 5.31638 7.15969L9.91974 4.2066C9.65614 3.48226 9.66866 2.68619 9.95492 1.97051C10.2412 1.25482 10.7811 0.669703 11.4715 0.326952C12.1619 -0.0157996 12.9544 -0.0921488 13.6976 0.112493C14.4407 0.317134 15.0824 0.788417 15.5 1.43629C15.9177 2.08416 16.0819 2.8632 15.9615 3.62454C15.841 4.38587 15.4442 5.07613 14.847 5.56342C14.2497 6.0507 13.4939 6.30085 12.7239 6.26606C11.9538 6.23126 11.2236 5.91397 10.6728 5.37481L6.06942 8.33225C6.31821 9.01975 6.31821 9.77271 6.06942 10.4602L10.6728 13.4176C11.1123 12.9875 11.6689 12.6965 12.2729 12.5811C12.877 12.4657 13.5016 12.5309 14.0688 12.7687C14.6359 13.0065 15.1204 13.4062 15.4615 13.9179C15.8026 14.4296 15.9853 15.0305 15.9866 15.6455Z" fill="black"/>
</svg>
