<svg width="16" height="22" viewBox="0 0 16 22" fill="none" xmlns="http://www.w3.org/2000/svg">
<path d="M15.807 10.683L5.62403 21.5934C5.51612 21.7086 5.37368 21.7855 5.21821 21.8126C5.06273 21.8397 4.90266 21.8155 4.76214 21.7437C4.62162 21.6718 4.50829 21.5562 4.43923 21.4143C4.37018 21.2724 4.34916 21.1119 4.37934 20.957L5.71223 14.2898L0.472528 12.3223C0.359998 12.2802 0.259648 12.2109 0.180442 12.1206C0.101236 12.0302 0.0456423 11.9217 0.0186267 11.8046C-0.00838893 11.6876 -0.00598459 11.5656 0.0256247 11.4497C0.057234 11.3338 0.117064 11.2275 0.199769 11.1404L10.3828 0.23002C10.4907 0.114857 10.6331 0.0379171 10.7886 0.01081C10.9441 -0.016297 11.1041 0.00789988 11.2447 0.0797493C11.3852 0.151599 11.4985 0.267202 11.5676 0.409115C11.6366 0.551028 11.6576 0.711549 11.6275 0.866457L10.2909 7.54087L15.5306 9.50564C15.6423 9.54801 15.7419 9.61725 15.8205 9.70723C15.8991 9.79721 15.9543 9.90517 15.9812 10.0216C16.0082 10.1379 16.0061 10.2592 15.9751 10.3745C15.944 10.4899 15.8851 10.5959 15.8034 10.683H15.807Z" fill="#FF5C00"/>
</svg>
